<?xml version="1.0" encoding="utf-8"?>
<!--
ID: 006
Skin Name: Vintage Frame
Description: Vintage frame skin file
Create Date: 10/12/2014
Version:1.0
Paddings: 90,0,40,0
-->
<!DOCTYPE svg PUBLIC "-//W3C//DTD SVG 1.0//EN" "http://www.w3.org/TR/2001/REC-SVG-20010904/DTD/svg10.dtd">
<svg version="1.0" id="Layer_1" xmlns="http://www.w3.org/2000/svg" xmlns:xlink="http://www.w3.org/1999/xlink" x="0px" y="0px"
	 width="640px" height="560px" viewBox="0 0 640 560" enable-background="new 0 0 640 560" xml:space="preserve">
<path fill-rule="evenodd" clip-rule="evenodd" fill="#13090A" d="M306.431,535.348c-3.432,3.843-12.345,10.065-18.178,6.313
	c-1.604-1.033-2.336-2.723-1.837-4.313c1.901-6.05,15.607-4.577,19.997-3.357c2.549,0.71,5.276,1.901,7.653,3.094
	c2.091,1.044,4.529,2.45,6.109,3.965c1.542-1.353,4.3-3.068,6.111-3.974c2.854-1.427,5.839-2.723,9.037-3.437
	c5.28-1.175,16.857-1.889,18.616,3.699c0.499,1.589-0.231,3.28-1.836,4.313c-5.854,3.766-14.836-2.557-18.181-6.313
	c-2.516,0.893-4.726,1.743-6.802,2.782c-2.056,1.027-3.983,2.246-5.944,3.876c2.734,2.96,8.403,12.36,1.935,15.617
	c-1.747,0.88-4.011,0.872-5.76,0c-6.487-3.235-1.496-12.101,1.792-15.634c-1.952-1.619-3.867-2.827-5.912-3.852
	C311.156,537.089,308.942,536.237,306.431,535.348L306.431,535.348z M304.905,534.905c-3.283-0.771-15.433-2.148-16.97,2.737
	c-0.353,1.129,0.164,2.326,1.304,3.058C294.087,543.816,302.045,537.994,304.905,534.905L304.905,534.905z M320.155,542.989
	c-2.567,2.877-7.383,10.875-1.97,13.577c1.244,0.619,2.842,0.629,4.085,0.004C327.646,553.864,322.127,545.201,320.155,542.989
	L320.155,542.989z M335.444,534.896c2.811,3.023,10.806,8.924,15.672,5.794c1.136-0.732,1.657-1.93,1.301-3.059
	C350.881,532.746,338.732,534.121,335.444,534.896z"/>
<path fill-rule="evenodd" clip-rule="evenodd" fill="#13090A" d="M518.861,533.835c2.542-0.824,4.222-2.628,5.165-4.498
	c2.558-2.37,4.308-5.294,3.478-8.475c-0.79-3.022-4.009-4.229-7.683-4.16c-12.212,0.233-15.688,8.993-22.624,14.997
	c-13.335,11.55-32.016,14.462-50.962,12.364c-11.57-1.28-22.718-4.437-33.387-8.097c-4.468,1.042-9.647,1.225-16.17,0.037
	c-5.774-1.049-10.758-2.799-15.706-4.535c-7.291-2.559-14.513-5.091-24.045-5.238c-12.516-0.19-24.155,2.712-33.512,7.864
	c-3.661,2.015-6.987,4.393-9.894,7.066c-1.266,1.169-4.007,2.932-5.957,1.568c-1.858-1.301-0.527-3.684,0.76-4.896
	c5.676-5.365,11.789-9.45,18.413-12.408c6.635-2.963,13.774-4.793,21.493-5.648c19.331-2.139,35.108,3.83,51.642,10.085
	c4.319,1.635,8.633,3.252,13.016,4.767c2.558-0.642,4.874-1.582,7.083-2.706c-4.228-1.632-8.459-3.262-12.701-4.875
	c-13.634-5.182-28.017-10.648-43.198-11.703c-6.508-0.451-13.132-0.169-19.538,0.838c-14.979,2.356-28.476,8.688-37.748,18.755
	l-1.271-0.727c9.518-10.331,23.36-16.829,38.719-19.243c6.547-1.031,13.312-1.316,19.966-0.855
	c15.466,1.068,29.986,6.59,43.751,11.821c4.515,1.716,9.012,3.463,13.519,5.19c7.081-3.94,13.082-8.938,20.646-12.38
	c7.314-3.323,15.846-5.776,24.401-5.393c8.969,0.4,21.733,3.707,21.687,12.352c-0.053,9.346-14.536,13.852-24.179,14.687
	c-16.244,1.41-29.149-2.777-42.401-7.833c-2.074,1.115-4.23,2.081-6.574,2.811c10.051,3.378,20.54,6.272,31.398,7.473
	c18.438,2.04,36.604-0.724,49.592-11.973c7.339-6.355,10.735-15.152,23.744-15.399c4.444-0.084,8.31,1.527,9.254,5.147
	c0.875,3.357-0.816,7.169-3.854,9.561C524.106,531.822,521.099,533.563,518.861,533.835L518.861,533.835z M410.46,535.137
	c-3.782-1.336-7.522-2.747-11.263-4.16c-16.313-6.174-31.881-12.063-50.754-9.976c-7.525,0.835-14.476,2.615-20.931,5.501
	c-6.461,2.882-12.433,6.876-17.988,12.125c-0.652,0.617-2.041,2.395-0.924,3.178c1.11,0.778,3.175-0.934,3.73-1.445
	c2.995-2.757,6.417-5.206,10.188-7.281c9.615-5.295,21.573-8.28,34.431-8.084c9.852,0.151,17.217,2.737,24.654,5.346
	c4.873,1.711,9.776,3.432,15.424,4.46C402.291,535.756,406.649,535.77,410.46,535.137L410.46,535.137z M423.082,531.739
	c12.769,4.84,25.268,8.767,40.779,7.419c8.726-0.754,22.731-4.807,22.778-13.461c0.043-7.914-12.178-10.753-20.21-11.11
	c-8.249-0.372-16.48,2.023-23.536,5.229C435.631,523.119,429.796,527.852,423.082,531.739z"/>
<path fill-rule="evenodd" clip-rule="evenodd" fill="#13090A" d="M417.539,524.055c-1.966,0.314-5.847-0.092-7.293-1.318
	c1.213,0.346,2.772,0.589,3.835,0.454c-3.658-1.633-4.558-5.789-1.419-8.269c2.593-2.048,6.8-2.044,9.39,0.004
	c2.956,2.337,2.358,6.242-0.945,8.03c4.184-0.146,9.225-1.229,14.404-2.345c5.769-1.243,11.599-2.552,17.619-2.635
	c9.146-0.128,18.322,1.402,24.981,6.516c-15.85-5.092-28.009-3.68-41.634,4.929c4.905,1.943,10.061,3.646,15.52,4.306
	c9.418,1.137,16.448-1.542,25.106-4.922c11.255-4.393,22.405-8.744,32.123-0.882c2.97-6.777,10.237-11.4,19.193-12.275
	c4.765-0.466,9.801,0.135,14.068,1.905c3.221-1.75,7.404-2.988,11.337-3.11c4.585-0.133,10.163,1.091,12.051,4.774
	c2.135,4.167-3.875,6.611-7.479,3.799c-1.896-1.523-0.68-4.48,2.287-4.49c-2.65,1.171-2.071,2.92-1.187,3.61
	c2.435,1.9,6.396,0.414,4.926-2.456c-1.62-3.159-6.623-4.122-10.536-4c-3.397,0.104-6.999,1.11-9.888,2.564
	c4.18,2.127,8.68,6.242,3.88,10.036c-2.595,2.045-6.8,2.043-9.391-0.004c-4.147-3.277-0.922-7.581,2.609-9.893
	c-3.844-1.448-8.276-1.919-12.488-1.508c-9.703,0.948-16.001,6.214-18.691,13.5c-9.58-9.331-20.786-4.887-32.12-0.464
	c-8.976,3.503-16.273,6.217-26.035,5.039c-6.46-0.778-12.375-2.949-18.128-5.288c9.488-6.216,20.341-10.589,32.936-9.031
	c-4.34-0.979-8.9-1.486-13.416-1.423c-5.881,0.084-11.602,1.381-17.235,2.594C429.122,523.267,422.556,524.678,417.539,524.055
	L417.539,524.055z M413.767,515.798c-3.137,2.476-1.155,5.786,2.319,6.711c1.325,0.271,2.774,0.103,3.941-0.483
	c2.515-1.272,3.429-4.24,0.913-6.229C418.962,514.233,415.744,514.238,413.767,515.798L413.767,515.798z M524.767,524.036
	c-2.273-1.795-5.962-1.8-8.236-0.003c-2.276,1.797-2.281,4.709-0.006,6.508c2.147,1.695,5.567,1.794,7.854,0.281
	C527.004,529.09,527.185,525.947,524.767,524.036L524.767,524.036z M517.633,524.908c-1.663,1.312-1.66,3.448,0,4.76
	c1.609,1.271,4.196,1.31,5.864,0.118c1.807-1.292,1.888-3.513,0.162-4.878C521.997,523.596,519.293,523.598,517.633,524.908
	L517.633,524.908z M542.603,519.017c-2.999,1.825-6.585,5.559-3.004,8.387c1.976,1.563,5.194,1.562,7.174,0
	C550.861,524.175,546.053,520.632,542.603,519.017z"/>
<rect x="565.974" y="514.439" fill-rule="evenodd" clip-rule="evenodd" fill="#13090A" width="74.378" height="0.938"/>
<path fill-rule="evenodd" clip-rule="evenodd" fill="#13090A" d="M121.587,533.846c-2.543-0.825-4.223-2.629-5.166-4.496
	c-2.558-2.372-4.309-5.297-3.479-8.479c0.789-3.021,4.007-4.228,7.683-4.158c12.212,0.231,15.691,8.991,22.624,14.999
	c13.336,11.55,32.016,14.461,50.963,12.362c11.567-1.279,22.716-4.438,33.386-8.1c4.468,1.045,9.648,1.228,16.17,0.042
	c5.772-1.053,10.756-2.8,15.704-4.537c7.292-2.558,14.513-5.092,24.047-5.238c12.517-0.193,24.155,2.714,33.511,7.864
	c3.663,2.016,6.988,4.394,9.895,7.068c1.265,1.17,4.008,2.933,5.955,1.566c1.856-1.303,0.528-3.683-0.757-4.896
	c-5.679-5.365-11.792-9.451-18.418-12.409c-6.632-2.962-13.77-4.795-21.488-5.647c-19.333-2.14-35.112,3.828-51.646,10.086
	c-4.317,1.632-8.63,3.252-13.014,4.767c-2.557-0.644-4.874-1.583-7.084-2.71c4.23-1.63,8.461-3.26,12.702-4.871
	c13.635-5.186,28.018-10.652,43.2-11.706c6.508-0.45,13.13-0.168,19.538,0.839c14.977,2.354,28.477,8.689,37.746,18.755l1.27-0.726
	c-9.514-10.33-23.358-16.829-38.715-19.245c-6.548-1.029-13.313-1.313-19.965-0.855c-15.468,1.068-29.987,6.591-43.753,11.821
	c-4.514,1.716-9.011,3.464-13.517,5.191c-7.083-3.94-13.083-8.938-20.648-12.378c-7.314-3.326-15.847-5.776-24.401-5.395
	c-8.97,0.402-21.735,3.703-21.687,12.351c0.051,9.344,14.537,13.853,24.178,14.689c16.244,1.409,29.151-2.779,42.402-7.838
	c2.074,1.119,4.232,2.083,6.573,2.811c-10.052,3.382-20.54,6.275-31.397,7.478c-18.439,2.039-36.605-0.726-49.592-11.975
	c-7.341-6.356-10.735-15.152-23.747-15.397c-4.444-0.084-8.307,1.524-9.251,5.145c-0.876,3.357,0.818,7.169,3.851,9.561
	C116.342,531.834,119.348,533.574,121.587,533.846L121.587,533.846z M229.984,535.144c3.786-1.329,7.525-2.743,11.262-4.157
	c16.316-6.172,31.884-12.062,50.758-9.973c7.523,0.83,14.476,2.613,20.931,5.496c6.459,2.886,12.432,6.879,17.988,12.129
	c0.648,0.615,2.041,2.393,0.925,3.177c-1.11,0.776-3.177-0.934-3.734-1.448c-2.991-2.753-6.415-5.202-10.187-7.279
	c-9.616-5.295-21.574-8.277-34.431-8.08c-9.852,0.15-17.217,2.735-24.653,5.344c-4.875,1.709-9.778,3.432-15.424,4.456
	C238.156,535.767,233.798,535.781,229.984,535.144L229.984,535.144z M217.364,531.749c-12.768,4.84-25.268,8.768-40.778,7.422
	c-8.727-0.756-22.732-4.81-22.779-13.462c-0.043-7.916,12.179-10.754,20.211-11.115c8.249-0.369,16.481,2.027,23.537,5.232
	C204.815,523.128,210.651,527.864,217.364,531.749z"/>
<path fill-rule="evenodd" clip-rule="evenodd" fill="#13090A" d="M222.909,524.063c1.966,0.319,5.848-0.09,7.292-1.317
	c-1.213,0.349-2.771,0.589-3.835,0.458c3.659-1.637,4.558-5.792,1.418-8.272c-2.591-2.046-6.798-2.041-9.386,0.003
	c-2.956,2.336-2.36,6.243,0.944,8.032c-4.182-0.147-9.223-1.232-14.402-2.346c-5.771-1.24-11.602-2.551-17.622-2.635
	c-9.146-0.128-18.322,1.404-24.982,6.516c15.849-5.091,28.011-3.678,41.637,4.929c-4.906,1.943-10.063,3.649-15.522,4.309
	c-9.416,1.132-16.449-1.544-25.108-4.924c-11.254-4.391-22.403-8.743-32.123-0.88c-2.968-6.78-10.237-11.402-19.191-12.275
	c-4.767-0.466-9.802,0.13-14.071,1.902c-3.218-1.752-7.401-2.985-11.335-3.106c-4.585-0.139-10.164,1.087-12.05,4.771
	c-2.137,4.167,3.874,6.612,7.478,3.801c1.899-1.523,0.68-4.48-2.285-4.494c2.65,1.174,2.071,2.924,1.187,3.612
	c-2.435,1.901-6.396,0.412-4.927-2.453c1.62-3.161,6.624-4.125,10.536-4.003c3.397,0.104,6.999,1.111,9.889,2.567
	c-4.18,2.124-8.682,6.243-3.879,10.034c2.592,2.046,6.797,2.041,9.387-0.005c4.148-3.278,0.924-7.579-2.607-9.893
	c3.843-1.449,8.275-1.915,12.488-1.505c9.703,0.946,16.002,6.214,18.691,13.498c9.581-9.332,20.788-4.884,32.122-0.462
	c8.975,3.501,16.275,6.214,26.034,5.039c6.459-0.781,12.375-2.953,18.129-5.291c-9.489-6.214-20.341-10.589-32.936-9.028
	c4.339-0.98,8.9-1.486,13.416-1.423c5.879,0.083,11.602,1.378,17.236,2.591C211.325,523.275,217.893,524.689,222.909,524.063
	L222.909,524.063z M226.681,515.807c3.137,2.479,1.155,5.785-2.319,6.713c-1.327,0.273-2.774,0.104-3.942-0.484
	c-2.516-1.271-3.429-4.24-0.913-6.229C221.484,514.246,224.704,514.246,226.681,515.807L226.681,515.807z M115.678,524.047
	c2.274-1.796,5.963-1.801,8.239-0.004c2.275,1.796,2.279,4.711,0.006,6.507c-2.147,1.699-5.569,1.795-7.857,0.283
	C113.445,529.099,113.262,525.957,115.678,524.047L115.678,524.047z M122.813,524.92c1.663,1.313,1.66,3.448,0,4.76
	c-1.608,1.269-4.196,1.312-5.863,0.118c-1.806-1.291-1.89-3.515-0.163-4.878C118.449,523.606,121.153,523.611,122.813,524.92
	L122.813,524.92z M97.845,519.027c2.998,1.822,6.583,5.559,3.002,8.389c-1.977,1.561-5.197,1.561-7.173-0.003
	C89.585,524.186,94.396,520.645,97.845,519.027z"/>
<rect x="-0.007" y="514.452" fill-rule="evenodd" clip-rule="evenodd" fill="#13090A" width="74.479" height="0.936"/>
<path fill-rule="evenodd" clip-rule="evenodd" fill="#13090A" d="M357.276,34.281c2.744,2.271,2.537,6.005-0.441,8.066
	c-2.6,1.796-6.482,1.681-8.924-0.336c-2.584-2.137-2.58-5.601,0.008-7.735C350.502,32.143,354.694,32.146,357.276,34.281
	L357.276,34.281z M349.168,35.319c-1.885,1.56-1.883,4.097,0.004,5.657c1.826,1.51,4.766,1.555,6.662,0.141
	c2.045-1.538,2.145-4.177,0.18-5.799C354.129,33.756,351.057,33.761,349.168,35.319z"/>
<path fill-rule="evenodd" clip-rule="evenodd" fill="#13090A" d="M439.059,83.382c-1.535-2.096-3.145-4.531-4.768-7.139
	c-1.762-2.831-3.533-5.838-5.252-8.822c-3.346-5.806-6.969-11.575-11.66-15.695c-4.607-4.05-10.285-6.524-17.824-5.88
	c-3,0.255-5.711,1.765-6.73,4.147c-1.434,3.354,1.203,6.411,4.791,7.939c3.434,1.462,9.912,1.398,10.232-2.73
	c0.133-1.715-1.631-3.61-3.195-4.594c2.064-0.135,5.439,0.183,8.26,1.274c6.82,2.639,10.219,8.297,9.682,14.229
	c-0.691,7.626-6.781,14.301-14.035,18.685c-6.803,4.11-14.699,6.682-21.475,6.533c5.236-4.064,8.889-8.479,9.793-15.087
	c0.709-5.18-0.814-10.582-4.822-14.674c-9.322-9.518-28.254-9.025-38.012-0.371c-5.131,4.549-6.789,10.672-4.625,16.571
	c2.65,7.224,11.76,11.953,20.738,9.703c6.891-1.729,11.988-6.932,12.641-12.854c0.67-6.095-4.783-9.435-11.779-8.765
	c-3.051,0.29-5.836,1.605-6.361,4.28c3.941-2.128,8.693,0.943,8.021,4.811c-0.334,1.911-2.025,3.767-4.074,4.563
	c-5.865,2.279-11.219-1.79-11.99-6.353c-1.424-8.423,8.568-14.296,18.166-13.529c6.467,0.515,11.988,3.393,14.584,8.442
	c4.014,7.82-0.26,16.485-6.963,22.257c-8.357,7.196-21.928,11.693-33.963,9.622c-6.447-1.106-12.18-3.884-16.555-7.952
	c-8.555-7.955-11.763-20.13-11.752-30.611c0.009-8.479,3.057-16.542,8.383-23.75c3.65-4.941,10.109-9.005,16.859-10.508
	c6.811-1.518,15.178,0.435,17.791,6.17c1.275,2.801,0.961,6.061-0.43,8.796c0.982-1.469,1.615-3.18,1.922-4.999
	c0.975-5.826-1.242-13.601-7.479-16.994c-10.461-5.69-21.727,2.102-29.873,7.101c9.07-9.514,10.605-14.568,1.59-19.998
	C327.186,6.173,320,2.675,320,0c1.863,2.54,6.695,4.277,9.594,6.041c6.914,4.204,9.404,9.398,3.342,16.419
	c7.424-4.48,16.283-8.236,25.1-3.44c6.754,3.674,9.23,11.926,8.17,18.25c-0.385,2.3-1.262,4.456-2.684,6.239
	c-1.51,1.895-3.625,3.361-6.396,4.123c-3.188,1.77-7.104,2.529-10.689,1.501c-4.662-1.333-7.654-5.493-2.895-9.199
	c-0.361,1.342,1.15,4.495,2.564,5.446c2.713,1.824,7.162,1.899,10.344,1.073c4.76-2.742,7.389-8.006,5.248-12.701
	c-2.34-5.14-9.906-6.717-15.92-5.377c-6.359,1.418-12.486,5.272-15.926,9.93c-5.178,7.005-8.148,14.84-8.156,23.078
	c-0.014,10.217,3.088,22.062,11.359,29.75c4.154,3.86,9.584,6.495,15.703,7.548c11.521,1.983,24.52-2.37,32.512-9.252
	c6.27-5.399,10.416-13.528,6.654-20.854c-2.369-4.61-7.396-7.192-13.293-7.665c-8.564-0.682-17.748,4.472-16.465,12.067
	c0.621,3.69,4.875,7.262,9.771,5.359c1.568-0.612,2.918-2.108,3.189-3.587c0.748-4.107-5.201-5.533-8.059-2.471
	c-0.613-4.4,2.711-7.232,7.771-7.714c7.977-0.763,14.273,3.252,13.514,10.168c-0.709,6.447-6.244,12.093-13.744,13.974
	c-9.805,2.456-19.785-2.66-22.689-10.564c-2.322-6.34-0.539-12.939,4.977-17.828c10.4-9.222,30.451-9.692,40.371,0.438
	c4.271,4.359,5.924,10.108,5.166,15.63c-0.699,5.105-3.438,10.098-8.055,13.824c5.471-0.681,12.045-3.308,17.252-6.455
	c6.885-4.16,12.742-10.5,13.398-17.736c0.492-5.402-2.551-10.551-8.781-12.962c-1.297-0.503-2.684-0.864-4.094-1.076
	c0.865,0.959,1.348,2.103,1.254,3.307c-0.393,5.098-7.996,5.72-12.51,3.797c-4.297-1.829-7.246-5.554-5.551-9.519
	c1.219-2.852,4.441-4.697,8.047-5.003c8.109-0.693,14.197,1.951,19.125,6.279c4.848,4.257,8.537,10.127,11.936,16.025
	c1.734,3.01,3.504,6.017,5.229,8.786c1.514,2.428,3,4.697,4.422,6.66c4.623-5.877,8.805-12.028,13.02-18.117
	c-3.287-3.655-8.289-12.885-1.84-16.25c1.73-0.905,3.973-0.912,5.703,0c6.422,3.38,0.762,13.156-1.959,16.211
	c6.709,7.928,13.223,15.202,20.84,21.088c7.703,5.954,16.566,10.504,27.961,12.903c18.295,3.853,27.15-3.118,36.043-10.117
	c3.137-2.471,6.281-4.947,9.844-6.98c-2.326-2.689-5.723-5.87-10.316-4.245c-1.652,0.584-2.975,1.789-3.322,3.267
	c-0.326,1.373-0.08,3.107,1.928,4.555l-1.123,0.902c-2.381-1.696-2.764-3.942-2.346-5.705c0.449-1.897,2.119-3.458,4.25-4.21
	c5.434-1.92,9.438,1.477,12.234,4.722c5.219-2.735,14.164-6.121,18.355-0.036c1.416,2.058,1.424,4.588,0.088,6.633
	c-1.836,2.808-5.912,4.191-9.699,3.284c-4.365-1.153-6.756-5.167-9.156-8.1c-3.48,1.986-6.572,4.422-9.658,6.852
	c-9.205,7.247-18.377,14.465-37.506,10.437c-11.674-2.457-20.752-7.12-28.643-13.218c-7.584-5.86-14.049-13.03-20.674-20.84
	c-4.258,6.121-8.393,12.387-13.162,18.238c2.697,3.064,8.27,12.769,1.885,16.131c-1.729,0.91-3.971,0.903-5.703,0
	C430.67,96.329,435.733,87.031,439.059,83.382L439.059,83.382z M346.944,47.913c1.449,0.416,2.969,0.487,4.465,0.286
	c-2.229-0.121-4.531-0.632-6.289-1.814c-1.17-0.787-2.041-1.839-2.41-3.19C342.297,45.558,344.524,47.221,346.944,47.913
	L346.944,47.913z M439.926,84.599c-2.537,2.966-7.279,11.233-1.943,14.019c1.225,0.638,2.803,0.65,4.027,0.005
	C447.315,95.827,441.87,86.884,439.926,84.599L439.926,84.599z M454.061,63.054c1.947-2.286,7.389-11.229,2.088-14.023
	c-1.229-0.645-2.805-0.634-4.029,0.005C446.784,51.822,451.528,60.086,454.061,63.054L454.061,63.054z M551.917,81.4
	c2.178,2.657,4.369,6.526,8.309,7.577c3.061,0.733,6.377-0.389,7.859-2.662c1.082-1.659,1.08-3.709-0.07-5.382
	C564.395,75.676,556.153,79.189,551.917,81.4z"/>
<path fill-rule="evenodd" clip-rule="evenodd" fill="#13090A" d="M623.125,88.873c-2.996-2.232-9.109-7.845-13.758-4.007
	c-2.086,1.723-2.08,4.526,0.002,6.248C613.157,94.246,620.387,91.442,623.125,88.873L623.125,88.873z M608.26,92.027
	c-2.699-2.232-2.693-5.85,0.006-8.077c5.457-4.509,12.236,0.994,15.879,3.938c3.188-3.463,3.135-7.694,0.242-11.32
	c-4.186-5.248-12.959-6.518-19.951-5.502c-10.051,1.454-17.422,8.203-24.051,14.113c1.484,1.913,3.08,3.778,5,5.47
	c5.059-2.46,16.295-5.292,19.604,0.197c0.916,1.517,0.697,3.356-0.578,4.689c-4.711,4.933-15.879-0.685-19.291-3.226
	c-11.109,5.345-22.738,8.196-35.615,8.155c-15.363-0.046-29.918-5.791-36.568-17.371c-8.684,2.934-20.449,5.544-29.678,2.725
	c-7.652-2.338-13.387-8.949-11.883-15.935c1.906-8.849,13.457-10.512,21.867-5.922c-3.506,0.642-7.471,2.281-8.039,5.278
	c-0.719,3.796,4.203,6.569,8.949,6.118c4.664-0.446,9.154-4.044,8.068-9.024c-1.289-5.893-10.045-9.482-16.566-9.887
	c-7.307-0.453-15.387,2.322-20.637,10.993c-3.254,5.382-6.303,10.896-10.084,16.044c2.729,3.052,8.416,12.853,1.982,16.238
	c-1.73,0.911-3.971,0.903-5.703,0c-6.434-3.359-1.463-12.567,1.809-16.222c-4.729-5.846-8.85-12.073-13.102-18.168
	c-7.254,8.148-14.109,15.58-22.262,21.528c-14.193,10.354-31.285,14.561-49.867,13.248c-9.387-0.661-17.6-3.203-25.129-8.376
	c-10.404-7.15-17.029-17.754-17.254-29.127c-0.074-3.718,0.545-7.477,1.936-11.018c3.363-8.551,13.477-20.034,26.016-18.873
	l-0.166,1.463c-11.688-1.154-21.105,9.584-24.336,17.743c-1.352,3.43-1.959,7.06-1.885,10.664
	c0.217,10.991,6.629,21.244,16.689,28.153c7.283,5.006,15.188,7.44,24.256,8.077c18.158,1.282,34.83-2.801,48.705-12.925
	c8.162-5.957,15.061-13.48,22.398-21.734c-3.512-3.925-8.102-12.915-1.801-16.205c1.732-0.905,3.973-0.912,5.703,0
	c6.436,3.386,0.74,13.193-1.99,16.246c4.232,6.084,8.396,12.241,13.023,18.121c3.578-4.984,6.527-10.276,9.662-15.456
	c5.594-9.243,14.279-12.196,22.152-11.707c7.256,0.451,16.568,4.453,17.988,10.95c1.289,5.907-3.963,10.006-9.447,10.503
	c-5.66,0.515-11.566-2.74-10.656-7.565c0.352-1.844,2.285-4.315,5.949-5.244c-7.393-2.871-15.285-0.198-16.684,6.309
	c-1.371,6.368,3.926,12.369,10.877,14.493c7.953,2.432,18.727,0.953,28.533-2.712c-3.502-8.247-5.859-27.362,8.943-29.478
	c4.451-0.638,9.232,0.953,11.861,3.995c8.689,10.051-10.547,22.71-18.791,26.125c6.486,11.129,20.283,16.597,35.158,16.643
	c12.475,0.039,23.732-2.689,34.518-7.835c-1.809-1.628-3.326-3.385-4.734-5.188c-8.627,7.529-19.518,14.482-32.844,11.949
	c-5.986-1.138-12.25-4.021-15.551-8.419c-4.902-6.526-1.979-15.111,5.877-19.248c5.723-3.013,13.479-4.132,20.129-2.952
	c11.877,2.105,16.775,8.749,22.625,16.561c6.764-6.063,14.389-12.771,24.641-14.255c7.611-1.1,16.992,0.386,21.529,6.072
	c3.275,4.104,3.281,8.965-0.35,12.861c2.283,1.813,6.578,4.128,10.154,2.615c4.195-1.778,4.318-7.803-0.299-8.626l0.795-1.112
	c5.545,1.176,5.561,8.795,0.213,10.954c-4.168,1.685-9.033-0.691-11.881-2.845C620.651,92.933,612.772,95.759,608.26,92.027
	L608.26,92.027z M578.42,85.021c-5.67-7.518-10.314-14.228-21.846-16.273c-6.252-1.108-13.586-0.055-18.963,2.775
	c-7.117,3.749-9.855,11.528-5.389,17.475c3.066,4.083,8.941,6.771,14.572,7.841C559.665,99.286,570.159,92.284,578.42,85.021
	L578.42,85.021z M586.514,91.604c2.553,1.829,12.773,7.207,16.672,3.132c0.9-0.943,1.045-2.24,0.398-3.313
	C600.833,86.858,590.67,89.673,586.514,91.604L586.514,91.604z M513.752,81.327c7.273-3.033,26.078-14.948,18.111-24.17
	c-2.285-2.639-6.467-4.019-10.322-3.466C507.942,55.632,510.665,73.937,513.752,81.327L513.752,81.327z M453.989,84.609
	c-2.533,2.964-7.277,11.233-1.941,14.017c1.225,0.641,2.803,0.651,4.027,0.007C461.377,95.838,455.936,86.894,453.989,84.609
	L453.989,84.609z M439.997,63.062c1.947-2.284,7.389-11.227,2.088-14.02c-1.225-0.646-2.805-0.635-4.029,0.004
	C432.844,51.767,437.245,59.843,439.997,63.062z"/>
<ellipse fill-rule="evenodd" clip-rule="evenodd" fill="#13090A" cx="635.252" cy="84.202" rx="3.24" ry="2.676"/>
<path fill-rule="evenodd" clip-rule="evenodd" fill="#13090A" d="M537.993,85.98c-1.725-0.391-2.736-1.865-2.262-3.289
	c0.473-1.425,2.254-2.263,3.979-1.87c1.723,0.389,2.738,1.862,2.266,3.288C541.5,85.534,539.719,86.374,537.993,85.98z"/>
<path fill-rule="evenodd" clip-rule="evenodd" fill="#13090A" d="M282.725,34.281c-2.747,2.271-2.539,6.006,0.439,8.066
	c2.599,1.796,6.484,1.681,8.924-0.336c2.584-2.137,2.579-5.601-0.006-7.735C289.498,32.143,285.307,32.146,282.725,34.281
	L282.725,34.281z M290.828,35.319c1.888,1.56,1.885,4.097,0,5.657c-1.827,1.51-4.767,1.558-6.66,0.141
	c-2.052-1.538-2.147-4.177-0.185-5.799C285.871,33.756,288.943,33.761,290.828,35.319z"/>
<path fill-rule="evenodd" clip-rule="evenodd" fill="#13090A" d="M200.939,83.382c1.538-2.096,3.146-4.531,4.769-7.139
	c1.764-2.831,3.534-5.838,5.252-8.822c3.347-5.806,6.967-11.575,11.658-15.695c4.611-4.05,10.288-6.524,17.828-5.88
	c3.001,0.255,5.709,1.765,6.728,4.147c1.437,3.354-1.201,6.411-4.79,7.939c-3.436,1.462-9.912,1.398-10.23-2.73
	c-0.132-1.715,1.631-3.61,3.194-4.594c-2.063-0.135-5.44,0.183-8.259,1.274c-6.819,2.639-10.219,8.297-9.681,14.229
	c0.69,7.626,6.779,14.301,14.034,18.685c6.804,4.11,14.699,6.682,21.473,6.533c-5.235-4.064-8.886-8.479-9.791-15.087
	c-0.711-5.18,0.815-10.582,4.823-14.674c9.322-9.518,28.253-9.025,38.013-0.371c5.13,4.549,6.789,10.672,4.623,16.571
	c-2.651,7.224-11.757,11.953-20.739,9.703c-6.891-1.729-11.988-6.932-12.64-12.854c-0.671-6.095,4.782-9.435,11.779-8.765
	c3.051,0.29,5.836,1.605,6.363,4.28c-3.943-2.128-8.697,0.943-8.023,4.811c0.332,1.911,2.026,3.767,4.073,4.563
	c5.863,2.279,11.22-1.79,11.99-6.353c1.424-8.423-8.568-14.296-18.164-13.529c-6.469,0.515-11.99,3.393-14.585,8.442
	c-4.013,7.82,0.26,16.485,6.965,22.257c8.354,7.196,21.923,11.693,33.961,9.622c6.446-1.106,12.18-3.884,16.554-7.952
	c8.556-7.955,11.765-20.13,11.752-30.611c-0.009-8.479-3.056-16.542-8.382-23.75c-3.65-4.941-10.111-9.005-16.858-10.508
	c-6.81-1.518-15.181,0.435-17.792,6.17c-1.277,2.801-0.962,6.061,0.431,8.796c-0.985-1.469-1.617-3.18-1.922-4.999
	c-0.978-5.826,1.24-13.601,7.478-16.994c10.457-5.69,21.726,2.102,29.872,7.101c-9.07-9.514-10.603-14.568-1.589-19.998
	C312.815,6.173,320,2.675,320,0c-1.863,2.54-6.696,4.277-9.595,6.041c-6.913,4.204-9.405,9.398-3.342,16.419
	c-7.423-4.48-16.284-8.236-25.1-3.44c-6.754,3.674-9.228,11.926-8.168,18.25c0.385,2.3,1.263,4.456,2.683,6.239
	c1.508,1.895,3.624,3.361,6.398,4.123c3.188,1.77,7.103,2.529,10.689,1.501c4.659-1.333,7.651-5.493,2.892-9.199
	c0.361,1.342-1.148,4.495-2.562,5.446c-2.713,1.824-7.164,1.899-10.343,1.073c-4.762-2.742-7.389-8.006-5.25-12.701
	c2.337-5.14,9.907-6.717,15.92-5.377c6.357,1.418,12.485,5.272,15.926,9.93c5.175,7.005,8.146,14.84,8.156,23.078
	c0.011,10.217-3.091,22.062-11.361,29.75c-4.152,3.86-9.582,6.495-15.7,7.548c-11.523,1.983-24.522-2.37-32.516-9.252
	c-6.269-5.399-10.414-13.528-6.652-20.854c2.368-4.61,7.397-7.192,13.292-7.665c8.566-0.682,17.75,4.472,16.467,12.067
	c-0.624,3.69-4.878,7.262-9.77,5.359c-1.572-0.612-2.922-2.108-3.192-3.587c-0.749-4.106,5.201-5.533,8.058-2.471
	c0.615-4.4-2.71-7.232-7.771-7.714c-7.975-0.763-14.275,3.252-13.514,10.168c0.708,6.447,6.241,12.093,13.742,13.974
	c9.805,2.456,19.79-2.66,22.689-10.564c2.327-6.34,0.539-12.939-4.973-17.828c-10.4-9.222-30.454-9.692-40.374,0.438
	c-4.27,4.359-5.923,10.108-5.165,15.63c0.698,5.105,3.436,10.098,8.055,13.824c-5.474-0.681-12.047-3.308-17.255-6.455
	c-6.885-4.16-12.74-10.5-13.397-17.736c-0.492-5.402,2.549-10.551,8.779-12.962c1.299-0.503,2.686-0.864,4.096-1.076
	c-0.864,0.959-1.348,2.103-1.257,3.307c0.395,5.098,7.999,5.72,12.513,3.797c4.296-1.829,7.246-5.554,5.551-9.519
	c-1.221-2.852-4.442-4.697-8.048-5.003c-8.11-0.693-14.198,1.951-19.125,6.279c-4.847,4.257-8.536,10.127-11.935,16.025
	c-1.734,3.01-3.503,6.017-5.229,8.786c-1.513,2.428-3.003,4.697-4.421,6.66c-4.627-5.877-8.805-12.028-13.021-18.117
	c3.289-3.655,8.288-12.885,1.841-16.25c-1.732-0.905-3.974-0.912-5.704,0c-6.421,3.38-0.762,13.156,1.958,16.211
	c-6.708,7.928-13.222,15.202-20.839,21.088c-7.704,5.954-16.566,10.504-27.961,12.903c-18.294,3.853-27.149-3.118-36.042-10.117
	c-3.138-2.471-6.282-4.947-9.842-6.98c2.323-2.689,5.721-5.87,10.313-4.245c1.654,0.584,2.975,1.789,3.324,3.267
	c0.326,1.373,0.08,3.107-1.928,4.555l1.124,0.902c2.377-1.696,2.761-3.942,2.345-5.705c-0.45-1.897-2.123-3.458-4.252-4.21
	c-5.431-1.92-9.437,1.477-12.233,4.722c-5.217-2.735-14.165-6.121-18.354-0.036c-1.417,2.058-1.425,4.588-0.089,6.633
	c1.834,2.808,5.912,4.191,9.696,3.284c4.368-1.153,6.757-5.167,9.159-8.1c3.478,1.986,6.57,4.422,9.658,6.852
	c9.206,7.247,18.376,14.465,37.507,10.437c11.67-2.457,20.75-7.12,28.642-13.218c7.583-5.86,14.049-13.03,20.672-20.84
	c4.259,6.121,8.394,12.387,13.163,18.238c-2.698,3.064-8.27,12.769-1.885,16.131c1.73,0.91,3.972,0.903,5.704,0
	C209.329,96.329,204.266,87.031,200.939,83.382L200.939,83.382z M293.057,47.913c-1.452,0.416-2.971,0.487-4.464,0.286
	c2.226-0.121,4.53-0.632,6.289-1.814c1.17-0.787,2.036-1.839,2.407-3.19C297.702,45.558,295.477,47.221,293.057,47.913
	L293.057,47.913z M200.074,84.599c2.537,2.966,7.28,11.233,1.942,14.019c-1.223,0.638-2.802,0.65-4.026,0.005
	C192.686,95.827,198.129,86.884,200.074,84.599L200.074,84.599z M185.938,63.054c-1.946-2.286-7.389-11.229-2.085-14.023
	c1.226-0.645,2.804-0.634,4.028,0.005C193.218,51.822,188.473,60.086,185.938,63.054L185.938,63.054z M88.084,81.4
	c-2.177,2.657-4.372,6.526-8.308,7.577c-3.06,0.733-6.377-0.389-7.861-2.662c-1.083-1.659-1.082-3.709,0.07-5.382
	C75.606,75.676,83.848,79.189,88.084,81.4z"/>
<path fill-rule="evenodd" clip-rule="evenodd" fill="#13090A" d="M16.873,88.873c2.998-2.232,9.111-7.845,13.759-4.007
	c2.083,1.723,2.081,4.526-0.001,6.248C26.844,94.246,19.612,91.442,16.873,88.873L16.873,88.873z M31.741,92.027
	c2.697-2.232,2.692-5.85-0.005-8.077c-5.46-4.509-12.238,0.994-15.881,3.938c-3.188-3.463-3.136-7.694-0.244-11.32
	c4.185-5.248,12.958-6.518,19.955-5.502c10.049,1.454,17.421,8.203,24.045,14.113c-1.48,1.913-3.079,3.778-4.996,5.47
	c-5.057-2.46-16.293-5.292-19.603,0.197c-0.915,1.517-0.695,3.356,0.576,4.689c4.712,4.933,15.879-0.685,19.292-3.226
	c11.112,5.345,22.739,8.196,35.616,8.155c15.362-0.046,29.918-5.791,36.568-17.371c8.686,2.934,20.451,5.544,29.676,2.725
	c7.653-2.338,13.388-8.949,11.884-15.935c-1.906-8.849-13.456-10.512-21.866-5.922c3.507,0.642,7.47,2.281,8.038,5.278
	c0.719,3.796-4.204,6.569-8.948,6.118c-4.666-0.445-9.154-4.044-8.068-9.024c1.287-5.893,10.042-9.482,16.564-9.887
	c7.305-0.453,15.388,2.322,20.638,10.993c3.256,5.382,6.303,10.896,10.082,16.044c-2.727,3.052-8.414,12.853-1.98,16.238
	c1.73,0.911,3.971,0.903,5.702,0c6.434-3.359,1.462-12.567-1.811-16.222c4.729-5.846,8.853-12.073,13.105-18.168
	c7.254,8.148,14.109,15.58,22.26,21.528c14.193,10.354,31.287,14.561,49.868,13.248c9.386-0.661,17.599-3.203,25.128-8.376
	c10.405-7.15,17.029-17.754,17.255-29.127c0.073-3.718-0.543-7.477-1.935-11.018c-3.364-8.551-13.481-20.034-26.018-18.873
	l0.169,1.463c11.684-1.154,21.106,9.583,24.333,17.743c1.356,3.428,1.958,7.06,1.888,10.664
	c-0.219,10.991-6.633,21.244-16.692,28.153c-7.285,5.006-15.188,7.44-24.257,8.077c-18.158,1.282-34.829-2.801-48.703-12.925
	c-8.164-5.957-15.06-13.48-22.399-21.734c3.51-3.925,8.103-12.915,1.801-16.205c-1.731-0.905-3.974-0.912-5.704,0
	c-6.436,3.386-0.741,13.193,1.988,16.246c-4.229,6.084-8.395,12.241-13.021,18.121c-3.578-4.984-6.528-10.276-9.661-15.456
	c-5.595-9.243-14.281-12.196-22.153-11.707c-7.258,0.451-16.569,4.453-17.987,10.95c-1.288,5.907,3.96,10.007,9.445,10.503
	c5.659,0.515,11.569-2.74,10.656-7.565c-0.35-1.844-2.282-4.315-5.946-5.244c7.392-2.871,15.282-0.198,16.682,6.309
	c1.372,6.368-3.925,12.369-10.877,14.493c-7.954,2.432-18.729,0.953-28.534-2.712c3.5-8.247,5.859-27.362-8.944-29.478
	c-4.45-0.638-9.232,0.953-11.862,3.995c-8.687,10.051,10.549,22.71,18.793,26.125c-6.486,11.129-20.287,16.597-35.16,16.643
	c-12.475,0.039-23.731-2.689-34.519-7.835c1.81-1.628,3.329-3.385,4.737-5.188c8.625,7.529,19.515,14.482,32.841,11.949
	c5.984-1.138,12.25-4.021,15.553-8.419c4.903-6.526,1.977-15.111-5.879-19.248c-5.72-3.013-13.476-4.132-20.126-2.952
	c-11.879,2.105-16.777,8.749-22.626,16.561c-6.766-6.063-14.392-12.771-24.641-14.255c-7.609-1.1-16.991,0.386-21.529,6.072
	c-3.273,4.104-3.282,8.965,0.352,12.861c-2.285,1.813-6.581,4.129-10.154,2.615c-4.197-1.777-4.322-7.803,0.294-8.626l-0.79-1.112
	c-5.547,1.176-5.564,8.795-0.215,10.954c4.169,1.685,9.034-0.691,11.882-2.845C19.351,92.933,27.227,95.759,31.741,92.027
	L31.741,92.027z M61.578,85.021c5.672-7.518,10.314-14.228,21.849-16.273c6.252-1.108,13.584-0.055,18.96,2.775
	c7.117,3.749,9.856,11.528,5.389,17.475c-3.065,4.083-8.941,6.771-14.571,7.841C80.335,99.286,69.842,92.284,61.578,85.021
	L61.578,85.021z M53.488,91.604c-2.554,1.829-12.776,7.207-16.674,3.132c-0.9-0.943-1.043-2.24-0.399-3.313
	C39.167,86.858,49.328,89.673,53.488,91.604L53.488,91.604z M126.247,81.327c-7.274-3.033-26.079-14.948-18.109-24.17
	c2.281-2.639,6.463-4.019,10.322-3.466C132.059,55.632,129.335,73.937,126.247,81.327L126.247,81.327z M186.012,84.609
	c2.534,2.964,7.276,11.233,1.94,14.017c-1.223,0.641-2.802,0.651-4.027,0.007C178.623,95.838,184.064,86.894,186.012,84.609
	L186.012,84.609z M200.001,63.062c-1.945-2.284-7.388-11.227-2.085-14.02c1.226-0.646,2.803-0.635,4.028,0.004
	C207.155,51.767,202.754,59.843,200.001,63.062z"/>
<ellipse fill-rule="evenodd" clip-rule="evenodd" fill="#13090A" cx="4.747" cy="84.202" rx="3.237" ry="2.676"/>
<path fill-rule="evenodd" clip-rule="evenodd" fill="#13090A" d="M102.005,85.98c1.725-0.391,2.739-1.865,2.266-3.289
	c-0.473-1.425-2.257-2.263-3.98-1.87c-1.724,0.389-2.738,1.862-2.265,3.288C98.499,85.534,100.281,86.373,102.005,85.98z"/>
</svg>
